<svg xmlns="http://www.w3.org/2000/svg" xml:space="preserve" style="enable-background:new 0 0 200 200" viewBox="0 0 200 200"><path d="M88.5 105.3c-.1 8.1-5.9 14.8-13.3 14.8-7.3 0-13.2-6.7-13.2-14.8s5.9-14.9 13.2-14.9c7.5 0 13.3 6.6 13.3 14.9zM137.4 105.3c-.1 8.2-5.8 14.8-13.2 14.8s-13.2-6.7-13.2-14.8 5.9-14.9 13.2-14.9c7.5 0 13.3 6.6 13.2 14.9z"/><path d="M99.8 0C44.7 0 0 44.7 0 99.8c0 27.5 11.2 52.4 29.2 70.5 18.1 18.1 43 29.2 70.6 29.3 55.1 0 99.8-44.7 99.8-99.8C199.5 44.7 154.9 0 99.8 0zm35.7 155.9c-3.1-4.1-5.7-8.4-8-12.9 4.4-1.6 8.7-3.6 12.6-6-1.1-.8-2-1.6-3.1-2.4-23.6 11.2-51 11.2-74.5 0-1.1.8-2 1.6-3.1 2.4 4 2.4 8.1 4.4 12.5 6-2.3 4.5-4.9 8.8-8 12.9-13.4-4-25.9-10.4-37.3-18.8-2.5-27.5 2.7-55.4 21.8-84 9.6-4.5 19.8-7.7 30.4-9.5 1.5 2.5 2.8 5.2 4 8 11.2-1.7 22.5-1.7 33.7 0 1.1-2.5 2.5-5.6 3.9-8 10.5 1.7 20.6 4.9 30.4 9.3 16.6 24.5 24.9 52.2 22 84.1-11.2 8.5-23.8 14.7-37.3 18.9z"/></svg>