<svg xmlns="http://www.w3.org/2000/svg" xml:space="preserve" style="enable-background:new 0 0 512 512" viewBox="0 0 512 512"><path d="M256 0C114.6 0 0 117.5 0 262.5c0 116 73.4 214.3 175.1 249 12.8 2.4 17.5-5.7 17.5-12.7 0-6.3-.2-22.7-.3-44.7-71.3 16-86.4-35.1-86.4-35.1-11.7-30.3-28.5-38.4-28.5-38.4-23.2-16.3 1.7-16 1.7-16 25.7 1.8 39.2 27.1 39.2 27.1 22.9 40.1 59.9 28.6 74.5 21.8 2.3-16.9 8.9-28.6 16.2-35.1-56.8-6.6-116.6-29.1-116.6-129.7 0-28.7 9.9-52.1 26.3-70.4-2.6-6.6-11.4-33.4 2.5-69.5 0 0 21.5-7.1 70.4 26.9 20.5-5.8 42.3-8.7 64.1-8.8 21.7.1 43.7 3 64.1 8.8 48.9-33.9 70.3-26.9 70.3-26.9 13.9 36.1 5.1 62.9 2.5 69.5 16.3 18.4 26.3 41.8 26.3 70.4 0 100.8-59.9 123-116.9 129.5 9.1 8.1 17.4 24.1 17.4 48.6 0 35.1-.3 63.4-.3 72 0 7 4.6 15.2 17.6 12.6 102-34.7 175.3-133 175.3-248.9C512 117.5 397.4 0 256 0z" style="fill-rule:evenodd;clip-rule:evenodd"/></svg>